<svg width="16" height="16" viewBox="0 0 16 16" fill="none" xmlns="http://www.w3.org/2000/svg">
<path d="M6.29433 12.2809C7.75448 12.2809 9.08188 11.7632 10.1173 10.8871L14.7632 15.533C14.8694 15.6392 15.0021 15.6923 15.1481 15.6923C15.2941 15.6923 15.4269 15.6392 15.5331 15.533C15.7455 15.3206 15.7455 14.9755 15.5331 14.7631L10.8872 10.1172C11.75 9.08182 12.2809 7.74114 12.2809 6.29427C12.2809 2.98903 9.59957 0.307678 6.29433 0.307678C3.00237 0.307678 0.307739 3.00231 0.307739 6.29427C0.307739 9.59951 3.00237 12.2809 6.29433 12.2809ZM6.29433 1.39615C9.00224 1.39615 11.1925 3.59964 11.1925 6.29427C11.1925 9.00218 9.00224 11.1924 6.29433 11.1924C3.58643 11.1924 1.39621 8.9889 1.39621 6.29427C1.39621 3.59964 3.5997 1.39615 6.29433 1.39615Z" fill="#4F4F4F"/>
</svg>
